<?xml version="1.0" standalone="no"?><!DOCTYPE svg PUBLIC "-//W3C//DTD SVG 1.1//EN" "http://www.w3.org/Graphics/SVG/1.1/DTD/svg11.dtd"><svg t="1486700353577" class="icon" style="" viewBox="0 0 1024 1024" version="1.1" xmlns="http://www.w3.org/2000/svg" p-id="6810" xmlns:xlink="http://www.w3.org/1999/xlink" width="200" height="200"><defs><style type="text/css"></style></defs><path d="M762.623549 396.549571l-27.851325 0L734.772224 288.635793c0-129.73476-92.452645-231.331669-223.801159-231.331669-131.87654 0-221.745337 103.762225-221.745337 231.331669l0 107.913778-27.850301 0c-61.421908 0-111.38074 50.710962-111.38074 113.081475l0 339.201445c0 62.371536 49.958832 113.081475 111.38074 113.081475l501.248122 0c61.420885 0 111.381763-50.709939 111.381763-113.081475L874.005312 509.631046C874.005312 447.25951 824.044434 396.549571 762.623549 396.549571zM344.905866 288.635793c0-96.340185 64.888869-174.789908 166.0652-174.789908 100.118232 0 168.099533 76.771501 168.099533 174.789908l0 107.913778L344.905866 396.549571 344.905866 288.635793zM818.302663 848.832492c0 31.185256-24.979928 56.540737-55.679114 56.540737L261.375427 905.373229c-30.700209 0-55.701626-25.355481-55.701626-56.540737L205.673801 509.631046c0-31.18628 25.001417-56.540737 55.701626-56.540737l501.248122 0c30.699186 0 55.679114 25.355481 55.679114 56.540737L818.302663 848.832492zM511.987209 566.128805c-30.743188 0-55.679114 25.354458-55.679114 56.583716 0 20.929682 11.208273 39.187511 27.850301 48.964178l0 92.3892c0 15.59314 12.456706 28.225855 27.828812 28.225855 15.394618 0 27.851325-12.632715 27.851325-28.225855l0-92.393293c16.646122-9.776667 27.852348-28.033473 27.852348-48.960085C567.690882 591.483262 542.753933 566.128805 511.987209 566.128805z" p-id="6811" fill="#999999"></path></svg>